<svg width="327" height="286" viewBox="0 0 327 286" fill="none" xmlns="http://www.w3.org/2000/svg">
<path d="M163.5 -0.000612301C73.2015 -0.000613378 6.61543e-05 54.1048 6.53584e-05 120.847C6.45625e-05 187.59 73.2015 241.695 163.5 241.695C253.799 241.695 327 187.59 327 120.847C327 54.1048 253.799 -0.000611224 163.5 -0.000612301Z" fill="white"/>
<path d="M113.412 452.68L3.55594 145.728L323.446 145.728L200.029 454.274C192.994 471.859 175.963 483.391 157.022 483.391C137.459 483.391 120.005 471.099 113.412 452.68Z" fill="white"/>
<ellipse cx="99.5217" cy="135.065" rx="99.5217" ry="135.065" transform="matrix(1.19249e-08 -1 -1 -1.19249e-08 298.565 220.368)" fill="#0141F9"/>
<g clip-path="url(#clip0_262_5202)">
<path d="M145.583 126.895V145.11H143.277V136.784H137.895V145.11H135.587V126.895H137.895V134.959H143.277V126.895H145.583Z" fill="white"/>
<path d="M156.171 143.937C156.582 143.937 156.983 143.825 157.377 143.6C157.769 143.374 158.11 142.964 158.4 142.38C158.693 141.787 158.927 140.989 159.106 139.986C159.286 138.976 159.375 137.697 159.375 136.133C159.375 134.568 159.286 133.289 159.106 132.285C158.927 131.276 158.693 130.477 158.4 129.889C158.11 129.298 157.769 128.889 157.377 128.665C156.983 128.44 156.582 128.325 156.171 128.325C155.76 128.325 155.361 128.44 154.967 128.665C154.574 128.889 154.232 129.298 153.942 129.889C153.651 130.477 153.416 131.276 153.237 132.285C153.058 133.289 152.969 134.573 152.969 136.133C152.969 137.692 153.058 138.976 153.237 139.986C153.416 140.989 153.651 141.787 153.942 142.38C154.232 142.964 154.574 143.374 154.967 143.6C155.361 143.825 155.761 143.937 156.171 143.937ZM156.171 126.766C157.045 126.766 157.815 126.912 158.491 127.212C159.168 127.506 159.743 128.007 160.221 128.72C160.7 129.431 161.061 130.39 161.311 131.591C161.558 132.797 161.684 134.31 161.684 136.132C161.684 137.955 161.558 139.468 161.311 140.672C161.061 141.882 160.7 142.839 160.221 143.55C159.743 144.26 159.168 144.765 158.491 145.059C157.815 145.352 157.045 145.498 156.171 145.498C155.297 145.498 154.528 145.352 153.853 145.059C153.178 144.765 152.601 144.26 152.123 143.55C151.642 142.839 151.281 141.882 151.031 140.672C150.786 139.467 150.662 137.953 150.662 136.132C150.662 134.311 150.786 132.797 151.031 131.591C151.281 130.39 151.642 129.431 152.123 128.72C152.601 128.007 153.178 127.506 153.853 127.212C154.528 126.912 155.299 126.766 156.171 126.766Z" fill="white"/>
<path d="M164.141 126.895H174.652V128.716H170.55V145.11H168.243V128.716H164.141V126.895Z" fill="white"/>
<path d="M180.289 143.289H186.698V145.11H177.98V126.895H186.698V128.718H180.289V134.702H185.928V136.523H180.289V143.289Z" fill="white"/>
<path d="M193.106 143.289H199.513V145.11H190.8V126.895H193.106V143.289Z" fill="white"/>
<path d="M205.532 126.895H203.223V145.11H205.532V126.895Z" fill="white"/>
<path d="M212.328 143.289H218.737V145.11H210.022V126.895H218.737V128.718H212.328V134.702H217.97V136.523H212.328V143.289Z" fill="white"/>
<path d="M226.031 137.433C226.611 137.433 227.111 137.358 227.531 137.215C227.95 137.066 228.296 136.825 228.568 136.483C228.84 136.145 229.04 135.694 229.168 135.131C229.3 134.566 229.364 133.861 229.364 133.012C229.364 132.128 229.3 131.394 229.168 130.809C229.04 130.234 228.84 129.767 228.568 129.422C228.296 129.072 227.95 128.825 227.531 128.678C227.111 128.532 226.611 128.457 226.031 128.457H224.235V137.433H226.031ZM231.669 133.012C231.669 133.896 231.613 134.659 231.502 135.302C231.391 135.944 231.23 136.494 231.014 136.952C230.801 137.412 230.532 137.787 230.208 138.069C229.883 138.358 229.516 138.58 229.108 138.737L232.183 145.241H229.621L226.799 139.254H224.236V145.241H221.928V127.288C222.579 127.095 223.231 126.963 223.89 126.885C224.548 126.807 225.261 126.765 226.031 126.765C227.056 126.765 227.926 126.87 228.645 127.077C229.364 127.287 229.945 127.637 230.387 128.13C230.831 128.628 231.156 129.275 231.362 130.072C231.568 130.871 231.67 131.849 231.67 133.012" fill="white"/>
<path d="M240.272 143.937C240.683 143.937 241.084 143.825 241.476 143.6C241.872 143.374 242.211 142.964 242.501 142.38C242.792 141.787 243.027 140.989 243.206 139.986C243.387 138.976 243.475 137.697 243.475 136.133C243.475 134.568 243.387 133.289 243.206 132.285C243.027 131.276 242.792 130.477 242.501 129.889C242.211 129.298 241.872 128.889 241.476 128.665C241.084 128.44 240.683 128.325 240.272 128.325C239.86 128.325 239.46 128.44 239.068 128.665C238.674 128.889 238.334 129.298 238.043 129.889C237.751 130.477 237.517 131.276 237.339 132.285C237.157 133.289 237.068 134.573 237.068 136.133C237.068 137.692 237.157 138.976 237.339 139.986C237.517 140.989 237.751 141.787 238.043 142.38C238.334 142.964 238.674 143.374 239.068 143.6C239.46 143.825 239.862 143.937 240.272 143.937ZM240.272 126.766C241.143 126.766 241.915 126.912 242.591 127.212C243.265 127.506 243.844 128.007 244.321 128.72C244.801 129.431 245.163 130.39 245.411 131.591C245.659 132.797 245.784 134.31 245.784 136.132C245.784 137.955 245.659 139.468 245.411 140.672C245.163 141.882 244.801 142.839 244.321 143.55C243.844 144.26 243.265 144.765 242.591 145.059C241.915 145.352 241.143 145.498 240.272 145.498C239.4 145.498 238.628 145.352 237.954 145.059C237.275 144.765 236.699 144.26 236.223 143.55C235.743 142.839 235.38 141.882 235.132 140.672C234.885 139.467 234.762 137.953 234.762 136.132C234.762 134.311 234.885 132.797 235.132 131.591C235.38 130.39 235.742 129.431 236.223 128.72C236.699 128.007 237.275 127.506 237.954 127.212C238.628 126.912 239.402 126.766 240.272 126.766Z" fill="white"/>
<path d="M121.356 139.078L121.38 124.077C121.315 124.076 121.251 124.09 121.195 124.121C120.878 124.293 120.232 124.647 120.133 124.701C120.001 124.773 120.018 124.92 120.018 124.92C120.018 124.92 120.213 133.051 120.371 139.559C120.686 139.388 121.14 139.138 121.158 139.126C121.238 139.085 121.302 139.073 121.356 139.078ZM122.719 124.92C122.719 124.92 122.735 124.773 122.603 124.701C122.503 124.647 121.846 124.287 121.534 124.115C121.488 124.09 121.435 124.079 121.38 124.077L121.356 139.078C121.416 139.08 121.464 139.103 121.512 139.128C121.571 139.161 122.044 139.415 122.364 139.587C122.522 133.072 122.719 124.92 122.719 124.92" fill="white"/>
<path d="M119.035 129.024C119.022 129.034 117.691 130.141 117.277 130.487C117.14 130.609 117.167 130.751 117.167 130.751C117.167 130.751 118.392 144.769 118.395 144.814C118.405 144.978 118.513 145.026 118.513 145.026L119.624 145.563C119.624 145.563 119.213 129.225 119.213 129.194C119.207 128.912 119.064 129 119.035 129.024" fill="white"/>
<path d="M122.291 142.592L121.433 142.129C121.433 142.129 121.402 142.112 121.357 142.107C121.326 142.104 121.289 142.109 121.252 142.129C121.193 142.16 120.767 142.395 120.445 142.571C120.514 145.432 120.563 147.491 120.563 147.531C120.565 147.663 120.667 147.701 120.667 147.701L121.369 147.929L121.378 147.926V147.924L122.071 147.701C122.071 147.701 122.173 147.663 122.173 147.531C122.173 147.49 122.223 145.441 122.291 142.592" fill="white"/>
<path d="M125.461 130.487C125.045 130.141 123.715 129.033 123.702 129.023C123.674 129.001 123.53 128.912 123.523 129.194C123.523 129.224 123.113 145.563 123.113 145.563L124.224 145.027C124.224 145.027 124.332 144.977 124.343 144.814C124.344 144.768 125.569 130.752 125.569 130.752C125.569 130.752 125.595 130.608 125.461 130.487Z" fill="white"/>
</g>
<path d="M83.3763 123.25H85.5482V130.073H85.5993C85.957 129.34 86.5191 128.812 87.2857 128.488C88.0522 128.148 88.8954 127.977 89.8153 127.977C90.8373 127.977 91.7231 128.165 92.4727 128.539C93.2392 128.914 93.8695 129.425 94.3635 130.073C94.8745 130.703 95.2578 131.435 95.5133 132.27C95.7688 133.105 95.8966 133.99 95.8966 134.927C95.8966 135.864 95.7688 136.75 95.5133 137.585C95.2748 138.419 94.9001 139.152 94.389 139.782C93.895 140.395 93.2648 140.881 92.4982 141.239C91.7487 141.596 90.8714 141.775 89.8664 141.775C89.5427 141.775 89.1765 141.741 88.7677 141.673C88.3759 141.605 87.9841 141.494 87.5923 141.341C87.2005 141.188 86.8257 140.983 86.468 140.728C86.1273 140.455 85.8377 140.123 85.5993 139.731H85.5482V141.494H83.3763V123.25ZM93.5969 134.774C93.5969 134.161 93.5118 133.565 93.3414 132.985C93.1881 132.389 92.9411 131.861 92.6004 131.401C92.2768 130.941 91.8509 130.575 91.3228 130.303C90.8118 130.03 90.2071 129.894 89.5087 129.894C88.7762 129.894 88.1544 130.038 87.6434 130.328C87.1324 130.618 86.715 131.001 86.3914 131.478C86.0677 131.938 85.8292 132.466 85.6759 133.062C85.5396 133.658 85.4715 134.263 85.4715 134.876C85.4715 135.524 85.5482 136.154 85.7015 136.767C85.8548 137.363 86.0933 137.891 86.4169 138.351C86.7576 138.811 87.192 139.186 87.72 139.476C88.2481 139.748 88.8869 139.884 89.6364 139.884C90.3859 139.884 91.0077 139.74 91.5017 139.45C92.0127 139.16 92.4215 138.777 92.7282 138.3C93.0348 137.823 93.2562 137.278 93.3925 136.665C93.5288 136.052 93.5969 135.421 93.5969 134.774ZM102.781 143.257C102.526 143.905 102.27 144.45 102.015 144.893C101.776 145.335 101.504 145.693 101.197 145.966C100.908 146.255 100.575 146.46 100.201 146.579C99.8429 146.715 99.4255 146.783 98.9486 146.783C98.693 146.783 98.4375 146.766 98.182 146.732C97.9265 146.698 97.6795 146.639 97.441 146.553V144.56C97.6284 144.646 97.8413 144.714 98.0798 144.765C98.3353 144.833 98.5482 144.867 98.7186 144.867C99.1615 144.867 99.5277 144.756 99.8173 144.535C100.124 144.33 100.354 144.032 100.507 143.64L101.402 141.417L96.1634 128.284H98.6164L102.475 139.092H102.526L106.231 128.284H108.53L102.781 143.257Z" fill="white"/>
<path d="M82.7955 96.2686H86.3383V104.318H95.5495V96.2686H99.0922V116.505H95.5495V107.379H86.3383V116.505H82.7955V96.2686ZM108.44 116.902C107.268 116.902 106.22 116.713 105.294 116.335C104.387 115.938 103.612 115.4 102.97 114.719C102.346 114.039 101.864 113.227 101.524 112.282C101.203 111.337 101.042 110.298 101.042 109.164C101.042 108.049 101.203 107.02 101.524 106.075C101.864 105.13 102.346 104.318 102.97 103.638C103.612 102.957 104.387 102.428 105.294 102.05C106.22 101.654 107.268 101.455 108.44 101.455C109.611 101.455 110.65 101.654 111.557 102.05C112.483 102.428 113.258 102.957 113.881 103.638C114.524 104.318 115.006 105.13 115.327 106.075C115.667 107.02 115.837 108.049 115.837 109.164C115.837 110.298 115.667 111.337 115.327 112.282C115.006 113.227 114.524 114.039 113.881 114.719C113.258 115.4 112.483 115.938 111.557 116.335C110.65 116.713 109.611 116.902 108.44 116.902ZM108.44 114.351C109.158 114.351 109.781 114.2 110.31 113.897C110.839 113.595 111.274 113.198 111.614 112.707C111.954 112.216 112.2 111.668 112.351 111.063C112.521 110.44 112.606 109.807 112.606 109.164C112.606 108.541 112.521 107.917 112.351 107.294C112.2 106.67 111.954 106.122 111.614 105.65C111.274 105.159 110.839 104.762 110.31 104.459C109.781 104.157 109.158 104.006 108.44 104.006C107.722 104.006 107.098 104.157 106.569 104.459C106.04 104.762 105.605 105.159 105.265 105.65C104.925 106.122 104.67 106.67 104.5 107.294C104.349 107.917 104.273 108.541 104.273 109.164C104.273 109.807 104.349 110.44 104.5 111.063C104.67 111.668 104.925 112.216 105.265 112.707C105.605 113.198 106.04 113.595 106.569 113.897C107.098 114.2 107.722 114.351 108.44 114.351ZM115.891 101.852H118.328V97.4589H121.559V101.852H124.479V104.261H121.559V112.084C121.559 112.424 121.569 112.716 121.588 112.962C121.625 113.208 121.692 113.416 121.786 113.586C121.899 113.756 122.06 113.888 122.268 113.982C122.476 114.058 122.759 114.096 123.118 114.096C123.345 114.096 123.572 114.096 123.798 114.096C124.025 114.077 124.252 114.039 124.479 113.982V116.477C124.12 116.514 123.77 116.552 123.43 116.59C123.09 116.628 122.74 116.647 122.381 116.647C121.531 116.647 120.841 116.571 120.312 116.42C119.802 116.25 119.396 116.014 119.093 115.711C118.81 115.39 118.612 114.993 118.498 114.521C118.404 114.049 118.347 113.51 118.328 112.905V104.261H115.891V101.852ZM135.706 107.889C135.668 107.379 135.555 106.887 135.366 106.415C135.196 105.943 134.95 105.536 134.629 105.196C134.327 104.837 133.949 104.554 133.495 104.346C133.061 104.119 132.569 104.006 132.021 104.006C131.454 104.006 130.935 104.11 130.463 104.318C130.009 104.507 129.612 104.781 129.272 105.14C128.951 105.48 128.686 105.886 128.479 106.358C128.29 106.831 128.186 107.341 128.167 107.889H135.706ZM128.167 110.015C128.167 110.581 128.242 111.129 128.394 111.658C128.564 112.187 128.809 112.65 129.13 113.047C129.452 113.444 129.858 113.765 130.349 114.011C130.84 114.238 131.426 114.351 132.106 114.351C133.051 114.351 133.807 114.152 134.374 113.756C134.959 113.34 135.394 112.726 135.677 111.913H138.738C138.568 112.707 138.276 113.416 137.86 114.039C137.444 114.663 136.943 115.192 136.358 115.626C135.772 116.042 135.111 116.354 134.374 116.562C133.656 116.788 132.9 116.902 132.106 116.902C130.954 116.902 129.933 116.713 129.045 116.335C128.157 115.957 127.402 115.428 126.778 114.748C126.173 114.067 125.71 113.255 125.389 112.31C125.087 111.366 124.936 110.326 124.936 109.193C124.936 108.153 125.096 107.171 125.418 106.245C125.758 105.3 126.23 104.478 126.835 103.779C127.458 103.061 128.205 102.494 129.074 102.079C129.943 101.663 130.925 101.455 132.021 101.455C133.174 101.455 134.204 101.701 135.111 102.192C136.036 102.664 136.802 103.297 137.406 104.091C138.011 104.885 138.446 105.801 138.71 106.84C138.994 107.861 139.069 108.919 138.937 110.015H128.167ZM140.32 96.2686H143.551V116.505H140.32V96.2686ZM153.096 96.2686H156.639V116.505H153.096V96.2686ZM159.372 101.852H162.433V104.006L162.49 104.063C162.981 103.25 163.623 102.617 164.417 102.164C165.211 101.691 166.089 101.455 167.053 101.455C168.659 101.455 169.925 101.871 170.851 102.702C171.777 103.534 172.24 104.781 172.24 106.443V116.505H169.009V107.294C168.971 106.141 168.725 105.31 168.272 104.8C167.818 104.271 167.11 104.006 166.146 104.006C165.598 104.006 165.107 104.11 164.672 104.318C164.238 104.507 163.869 104.781 163.567 105.14C163.264 105.48 163.028 105.886 162.858 106.358C162.688 106.831 162.603 107.331 162.603 107.861V116.505H159.372V101.852ZM176.926 111.8C177.02 112.745 177.379 113.406 178.003 113.784C178.626 114.162 179.373 114.351 180.242 114.351C180.544 114.351 180.884 114.332 181.262 114.294C181.659 114.238 182.027 114.143 182.367 114.011C182.708 113.879 182.982 113.69 183.189 113.444C183.416 113.179 183.52 112.839 183.501 112.424C183.482 112.008 183.331 111.668 183.048 111.403C182.764 111.139 182.396 110.931 181.942 110.78C181.508 110.61 181.007 110.468 180.44 110.355C179.873 110.241 179.297 110.118 178.711 109.986C178.107 109.854 177.521 109.693 176.954 109.504C176.406 109.315 175.905 109.06 175.452 108.739C175.017 108.418 174.668 108.012 174.403 107.52C174.139 107.01 174.007 106.387 174.007 105.65C174.007 104.856 174.195 104.195 174.573 103.666C174.97 103.118 175.461 102.683 176.047 102.362C176.652 102.022 177.313 101.786 178.031 101.654C178.768 101.521 179.467 101.455 180.128 101.455C180.884 101.455 181.602 101.54 182.282 101.71C182.982 101.861 183.605 102.117 184.153 102.476C184.72 102.835 185.183 103.307 185.542 103.893C185.92 104.459 186.156 105.149 186.25 105.962H182.878C182.726 105.187 182.367 104.667 181.801 104.403C181.253 104.138 180.62 104.006 179.902 104.006C179.675 104.006 179.401 104.025 179.08 104.063C178.777 104.1 178.485 104.176 178.201 104.289C177.937 104.384 177.71 104.535 177.521 104.743C177.332 104.932 177.238 105.187 177.238 105.508C177.238 105.905 177.37 106.226 177.634 106.472C177.918 106.717 178.277 106.925 178.711 107.095C179.165 107.246 179.675 107.379 180.242 107.492C180.809 107.605 181.394 107.728 181.999 107.861C182.585 107.993 183.161 108.153 183.728 108.342C184.295 108.531 184.795 108.786 185.23 109.108C185.683 109.429 186.042 109.835 186.307 110.326C186.59 110.818 186.732 111.422 186.732 112.14C186.732 113.009 186.534 113.746 186.137 114.351C185.74 114.956 185.221 115.447 184.578 115.825C183.955 116.203 183.256 116.477 182.481 116.647C181.706 116.817 180.941 116.902 180.185 116.902C179.259 116.902 178.4 116.798 177.606 116.59C176.831 116.382 176.151 116.07 175.565 115.655C174.998 115.22 174.545 114.691 174.205 114.067C173.884 113.425 173.714 112.669 173.695 111.8H176.926ZM188.112 96.2686H191.343V99.3295H188.112V96.2686ZM188.112 101.852H191.343V116.505H188.112V101.852ZM207.252 115.74C207.252 117.95 206.629 119.594 205.382 120.671C204.154 121.767 202.378 122.315 200.054 122.315C199.317 122.315 198.57 122.239 197.814 122.088C197.078 121.937 196.397 121.682 195.774 121.323C195.169 120.964 194.659 120.492 194.243 119.906C193.828 119.32 193.582 118.602 193.506 117.752H196.737C196.832 118.205 196.993 118.574 197.219 118.857C197.446 119.141 197.711 119.358 198.013 119.509C198.334 119.679 198.684 119.783 199.062 119.821C199.439 119.878 199.836 119.906 200.252 119.906C201.556 119.906 202.51 119.585 203.114 118.942C203.719 118.3 204.021 117.374 204.021 116.165V113.926H203.965C203.511 114.738 202.888 115.371 202.094 115.825C201.319 116.278 200.479 116.505 199.572 116.505C198.4 116.505 197.399 116.306 196.567 115.91C195.755 115.494 195.075 114.937 194.527 114.238C193.998 113.52 193.61 112.698 193.365 111.772C193.119 110.846 192.996 109.854 192.996 108.796C192.996 107.813 193.147 106.878 193.45 105.99C193.752 105.102 194.187 104.327 194.754 103.666C195.32 102.986 196.01 102.447 196.822 102.05C197.654 101.654 198.589 101.455 199.628 101.455C200.554 101.455 201.404 101.654 202.179 102.05C202.954 102.428 203.549 103.033 203.965 103.864H204.021V101.852H207.252V115.74ZM200.082 113.954C200.8 113.954 201.404 113.812 201.896 113.529C202.406 113.227 202.812 112.839 203.114 112.367C203.436 111.876 203.662 111.328 203.795 110.723C203.946 110.1 204.021 109.476 204.021 108.852C204.021 108.229 203.946 107.624 203.795 107.039C203.644 106.453 203.407 105.933 203.086 105.48C202.784 105.026 202.378 104.667 201.867 104.403C201.376 104.138 200.781 104.006 200.082 104.006C199.364 104.006 198.759 104.157 198.268 104.459C197.777 104.762 197.38 105.159 197.078 105.65C196.775 106.122 196.558 106.67 196.426 107.294C196.293 107.898 196.227 108.503 196.227 109.108C196.227 109.712 196.303 110.307 196.454 110.893C196.605 111.46 196.832 111.97 197.134 112.424C197.455 112.877 197.852 113.246 198.325 113.529C198.816 113.812 199.402 113.954 200.082 113.954ZM209.347 96.2686H212.578V103.779H212.635C213.031 103.118 213.617 102.57 214.392 102.135C215.185 101.682 216.064 101.455 217.028 101.455C218.634 101.455 219.9 101.871 220.825 102.702C221.751 103.534 222.214 104.781 222.214 106.443V116.505H218.983V107.294C218.945 106.141 218.7 105.31 218.246 104.8C217.793 104.271 217.084 104.006 216.121 104.006C215.573 104.006 215.081 104.11 214.647 104.318C214.212 104.507 213.844 104.781 213.542 105.14C213.239 105.48 213.003 105.886 212.833 106.358C212.663 106.831 212.578 107.331 212.578 107.861V116.505H209.347V96.2686ZM222.989 101.852H225.427V97.4589H228.658V101.852H231.577V104.261H228.658V112.084C228.658 112.424 228.667 112.716 228.686 112.962C228.724 113.208 228.79 113.416 228.884 113.586C228.998 113.756 229.158 113.888 229.366 113.982C229.574 114.058 229.858 114.096 230.217 114.096C230.443 114.096 230.67 114.096 230.897 114.096C231.123 114.077 231.35 114.039 231.577 113.982V116.477C231.218 116.514 230.868 116.552 230.528 116.59C230.188 116.628 229.839 116.647 229.48 116.647C228.629 116.647 227.94 116.571 227.411 116.42C226.901 116.25 226.494 116.014 226.192 115.711C225.909 115.39 225.71 114.993 225.597 114.521C225.502 114.049 225.446 113.51 225.427 112.905V104.261H222.989V101.852ZM235.18 111.8C235.275 112.745 235.634 113.406 236.257 113.784C236.881 114.162 237.627 114.351 238.496 114.351C238.799 114.351 239.139 114.332 239.517 114.294C239.913 114.238 240.282 114.143 240.622 114.011C240.962 113.879 241.236 113.69 241.444 113.444C241.671 113.179 241.775 112.839 241.756 112.424C241.737 112.008 241.586 111.668 241.302 111.403C241.019 111.139 240.65 110.931 240.197 110.78C239.762 110.61 239.261 110.468 238.695 110.355C238.128 110.241 237.552 110.118 236.966 109.986C236.361 109.854 235.775 109.693 235.209 109.504C234.661 109.315 234.16 109.06 233.706 108.739C233.272 108.418 232.922 108.012 232.658 107.52C232.393 107.01 232.261 106.387 232.261 105.65C232.261 104.856 232.45 104.195 232.828 103.666C233.225 103.118 233.716 102.683 234.302 102.362C234.906 102.022 235.568 101.786 236.286 101.654C237.022 101.521 237.722 101.455 238.383 101.455C239.139 101.455 239.857 101.54 240.537 101.71C241.236 101.861 241.86 102.117 242.407 102.476C242.974 102.835 243.437 103.307 243.796 103.893C244.174 104.459 244.41 105.149 244.505 105.962H241.132C240.981 105.187 240.622 104.667 240.055 104.403C239.507 104.138 238.874 104.006 238.156 104.006C237.929 104.006 237.655 104.025 237.334 104.063C237.032 104.1 236.739 104.176 236.456 104.289C236.191 104.384 235.964 104.535 235.775 104.743C235.586 104.932 235.492 105.187 235.492 105.508C235.492 105.905 235.624 106.226 235.889 106.472C236.172 106.717 236.531 106.925 236.966 107.095C237.419 107.246 237.929 107.379 238.496 107.492C239.063 107.605 239.649 107.728 240.253 107.861C240.839 107.993 241.416 108.153 241.982 108.342C242.549 108.531 243.05 108.786 243.484 109.108C243.938 109.429 244.297 109.835 244.561 110.326C244.845 110.818 244.987 111.422 244.987 112.14C244.987 113.009 244.788 113.746 244.391 114.351C243.995 114.956 243.475 115.447 242.833 115.825C242.209 116.203 241.51 116.477 240.735 116.647C239.961 116.817 239.195 116.902 238.44 116.902C237.514 116.902 236.654 116.798 235.86 116.59C235.086 116.382 234.406 116.07 233.82 115.655C233.253 115.22 232.799 114.691 232.459 114.067C232.138 113.425 231.968 112.669 231.949 111.8H235.18Z" fill="white"/>
<defs>
<clipPath id="clip0_262_5202">
<rect width="128.619" height="23.852" fill="white" transform="translate(117.165 124.076)"/>
</clipPath>
</defs>
</svg>
