<svg width="168" height="55" viewBox="0 0 168 55" fill="none" xmlns="http://www.w3.org/2000/svg"><g clip-path="url(#a)" fill="#231F20"><path d="M66.04 33.564v18.563h-2.346v-8.484h-5.477v8.484h-2.348V33.564h2.348v8.22h5.477v-8.22zM76.815 50.93a2.44 2.44 0 0 0 1.226-.342c.399-.23.747-.648 1.042-1.244q.446-.906.718-2.44c.183-1.03.273-2.333.273-3.927s-.09-2.897-.273-3.921q-.272-1.543-.718-2.441-.443-.906-1.042-1.249a2.44 2.44 0 0 0-1.226-.345q-.626 0-1.226.345-.6.344-1.043 1.249-.444.898-.718 2.44-.272 1.538-.272 3.922t.273 3.928q.273 1.533.717 2.44c.295.595.643 1.013 1.043 1.243q.6.344 1.226.343m0-17.499c.89 0 1.672.15 2.36.455q1.032.448 1.76 1.537c.488.725.855 1.702 1.11 2.926q.378 1.843.379 4.628-.001 2.787-.38 4.627c-.254 1.233-.62 2.209-1.108 2.933q-.729 1.086-1.761 1.537c-.688.3-1.47.448-2.36.448s-1.673-.148-2.359-.448q-1.032-.45-1.76-1.537c-.49-.724-.857-1.7-1.111-2.934q-.376-1.841-.377-4.626.001-2.784.377-4.628c.254-1.224.621-2.201 1.11-2.926q.729-1.09 1.761-1.537 1.027-.456 2.359-.455m8.109.132H95.62v1.855h-4.173v16.709h-2.348V35.42h-4.174zm16.432 16.708h6.521v1.855h-8.87V33.564h8.87v1.86h-6.521v6.097h5.737v1.856h-5.737zm13.041 0h6.52v1.855h-8.866V33.564h2.346zm12.645-16.708h-2.35v18.563h2.35zm6.915 16.708h6.521v1.855h-8.868V33.564h8.868v1.86h-6.521v6.097h5.74v1.856h-5.74zm13.943-5.969c.59 0 1.099-.077 1.526-.222a2.3 2.3 0 0 0 1.056-.747q.414-.517.611-1.377.2-.862.198-2.16.002-1.35-.198-2.245c-.131-.586-.334-1.062-.611-1.414a2.26 2.26 0 0 0-1.056-.758q-.64-.225-1.526-.226h-1.827v9.148zm5.738-4.506q-.001 1.35-.17 2.334-.168.981-.497 1.682-.326.704-.82 1.138-.497.44-1.12.68l3.129 6.63h-2.607l-2.871-6.103h-2.609v6.103h-2.348V33.963q.993-.292 1.996-.41 1.004-.121 2.18-.123 1.564.001 2.659.319 1.097.32 1.773 1.073.678.76.992 1.979t.313 2.996m8.753 11.133q.627 0 1.225-.342c.403-.23.748-.648 1.043-1.244q.445-.906.718-2.44c.183-1.03.274-2.333.274-3.927s-.091-2.897-.274-3.921q-.274-1.543-.718-2.441c-.295-.604-.64-1.02-1.043-1.249a2.44 2.44 0 0 0-1.225-.345q-.628 0-1.226.345-.599.344-1.043 1.249-.443.898-.716 2.44-.276 1.538-.275 3.922-.001 2.384.275 3.928.272 1.533.716 2.44c.297.595.643 1.013 1.043 1.243q.6.344 1.226.343m0-17.499q1.328-.001 2.36.455 1.03.448 1.76 1.537.731 1.089 1.11 2.926.378 1.843.379 4.628-.001 2.787-.379 4.627-.379 1.848-1.11 2.933-.73 1.086-1.76 1.537-1.031.449-2.36.448-1.33.001-2.359-.448-1.035-.45-1.761-1.537-.733-1.085-1.111-2.934-.376-1.841-.376-4.626 0-2.784.376-4.628.379-1.837 1.111-2.926.726-1.09 1.761-1.537 1.03-.456 2.359-.455M41.389 45.98l.024-15.289a.4.4 0 0 0-.188.045c-.322.175-.98.536-1.08.591-.135.074-.118.223-.118.223s.198 8.286.36 14.92c.32-.175.782-.43.8-.442a.37.37 0 0 1 .202-.049m1.386-14.43s.017-.15-.117-.223c-.103-.055-.77-.422-1.089-.597a.35.35 0 0 0-.156-.039l-.024 15.288c.06.003.11.025.158.05.06.035.542.294.867.47zm-3.748 4.183c-.014.01-1.368 1.14-1.79 1.49-.138.125-.11.27-.11.27l1.249 14.333c.01.166.12.216.12.216l1.13.547-.418-16.682c-.006-.288-.152-.198-.18-.174m3.312 13.829-.873-.471s-.032-.019-.077-.023a.2.2 0 0 0-.107.023c-.06.03-.494.27-.822.45l.12 5.054a.18.18 0 0 0 .106.174l.715.232.009-.003v-.001l.704-.228s.104-.039.104-.174zm3.225-12.337c-.423-.353-1.776-1.482-1.79-1.492-.028-.023-.174-.114-.182.173l-.417 16.683 1.13-.546s.11-.051.121-.217c.002-.047 1.248-14.332 1.248-14.332s.027-.146-.11-.27"/></g><path d="M2.742 30.419h2.21v6.942h.052a3.25 3.25 0 0 1 1.716-1.612q1.17-.52 2.574-.52 1.56 0 2.704.572 1.17.572 1.924 1.56.78.961 1.17 2.236.39 1.274.39 2.704a9.2 9.2 0 0 1-.39 2.704 6.2 6.2 0 0 1-1.144 2.236 5.3 5.3 0 0 1-1.924 1.482q-1.144.546-2.678.546-.494 0-1.118-.104a6.2 6.2 0 0 1-1.196-.338 5.3 5.3 0 0 1-1.144-.624 3.9 3.9 0 0 1-.884-1.014h-.052v1.794h-2.21zm10.4 11.726q0-.935-.26-1.82a4.6 4.6 0 0 0-.754-1.612 3.55 3.55 0 0 0-1.3-1.118q-.78-.416-1.846-.416-1.118 0-1.898.442-.78.441-1.274 1.17a4.9 4.9 0 0 0-.728 1.612 8.3 8.3 0 0 0-.208 1.846q0 .987.234 1.924.234.91.728 1.612.52.703 1.326 1.144.806.416 1.95.416t1.898-.442a3.5 3.5 0 0 0 1.248-1.17q.468-.728.676-1.664a9 9 0 0 0 .208-1.924m9.346 8.632a13 13 0 0 1-.78 1.664q-.364.675-.832 1.092a2.5 2.5 0 0 1-1.015.624q-.546.207-1.274.208-.39 0-.78-.052a3.7 3.7 0 0 1-.753-.182v-2.028q.285.13.65.208.39.105.65.104.675 0 1.117-.338.468-.312.703-.91l.91-2.262-5.33-13.364h2.496l3.925 10.998h.052l3.77-10.998h2.34zM2.151 2.409h3.605v8.19h9.373v-8.19h3.605V23h-3.605v-9.286H5.756V23H2.151zm26.094 20.995q-1.788 0-3.2-.577a7.2 7.2 0 0 1-2.366-1.644q-.951-1.038-1.47-2.48-.49-1.442-.49-3.172 0-1.703.49-3.144.519-1.442 1.47-2.48a6.8 6.8 0 0 1 2.365-1.615q1.414-.606 3.201-.606t3.173.606q1.413.576 2.364 1.615a6.7 6.7 0 0 1 1.471 2.48q.52 1.442.52 3.144 0 1.73-.52 3.172a6.7 6.7 0 0 1-1.47 2.48q-.952 1.038-2.365 1.644-1.384.577-3.173.577m0-2.596q1.095 0 1.904-.461.807-.462 1.326-1.212t.75-1.672q.26-.953.26-1.932 0-.953-.26-1.904a4.7 4.7 0 0 0-.75-1.673 4 4 0 0 0-1.326-1.21q-.808-.462-1.904-.462t-1.903.461-1.327 1.211a5.2 5.2 0 0 0-.778 1.673 8.05 8.05 0 0 0 0 3.836q.26.923.778 1.672.52.75 1.327 1.212.808.46 1.903.461M35.827 8.09h2.48V3.62h3.288v4.47h2.97v2.451h-2.97v7.96q0 .519.029.894.057.375.202.634.173.26.49.404.318.116.865.116h.693q.344-.03.692-.116v2.538q-.549.058-1.067.116a10 10 0 0 1-1.068.057q-1.297 0-2.105-.23-.778-.26-1.24-.722a2.8 2.8 0 0 1-.605-1.21 10 10 0 0 1-.174-1.645v-8.796h-2.48zm20.163 6.143a5 5 0 0 0-.346-1.5 3.5 3.5 0 0 0-.75-1.24 3.26 3.26 0 0 0-1.154-.865 3.2 3.2 0 0 0-1.5-.346q-.865 0-1.585.317a3.5 3.5 0 0 0-1.212.836q-.49.52-.807 1.24-.288.721-.317 1.558zm-7.671 2.163q0 .864.23 1.672.26.808.75 1.414t1.24.98q.75.346 1.788.346 1.442 0 2.308-.605.894-.634 1.326-1.875h3.115a6.2 6.2 0 0 1-.894 2.163 6.4 6.4 0 0 1-1.529 1.615 6.5 6.5 0 0 1-2.018.952q-1.096.346-2.308.346-1.758 0-3.114-.577a6.6 6.6 0 0 1-2.307-1.615q-.924-1.038-1.414-2.48-.46-1.442-.461-3.173 0-1.586.49-2.999a7.9 7.9 0 0 1 1.442-2.509 7 7 0 0 1 2.279-1.73q1.326-.635 2.999-.635 1.759 0 3.143.75a6.74 6.74 0 0 1 2.336 1.932q.924 1.212 1.327 2.798a8.3 8.3 0 0 1 .23 3.23zM60.685 2.409h3.287V23h-3.287zm13 0h3.605V23h-3.605zm6.386 5.681h3.115v2.192l.058.057a5.4 5.4 0 0 1 1.961-1.932 5.15 5.15 0 0 1 2.682-.72q2.451 0 3.864 1.268 1.414 1.269 1.414 3.807V23h-3.288v-9.373q-.057-1.76-.75-2.538-.692-.807-2.163-.807-.835 0-1.5.317a3 3 0 0 0-1.124.836q-.462.52-.721 1.24-.26.721-.26 1.529V23h-3.287zm17.862 10.123q.145 1.442 1.096 2.018.952.577 2.278.577.462 0 1.039-.058a5 5 0 0 0 1.124-.288q.519-.202.837-.577.345-.404.317-1.038-.029-.634-.462-1.038-.432-.404-1.124-.635a9 9 0 0 0-1.529-.432 72 72 0 0 1-1.759-.375 17 17 0 0 1-1.788-.49 6 6 0 0 1-1.529-.779 3.7 3.7 0 0 1-1.067-1.24q-.403-.78-.403-1.904 0-1.21.577-2.018.605-.837 1.5-1.327a6.5 6.5 0 0 1 2.018-.72q1.125-.203 2.134-.203 1.154 0 2.192.26a5.6 5.6 0 0 1 1.903.778 4.4 4.4 0 0 1 1.413 1.442q.577.866.721 2.106h-3.432q-.23-1.183-1.095-1.587-.837-.403-1.933-.403-.345 0-.836.057a3.6 3.6 0 0 0-.894.231q-.405.144-.692.462-.288.288-.289.778 0 .605.404.98.433.375 1.096.635.692.231 1.557.404.865.172 1.788.375.894.201 1.76.49a5.5 5.5 0 0 1 1.528.779q.693.49 1.096 1.24.432.75.433 1.846 0 1.326-.606 2.25a4.74 4.74 0 0 1-1.586 1.499 7 7 0 0 1-2.134.836 11 11 0 0 1-2.336.26q-1.413 0-2.625-.317a6.4 6.4 0 0 1-2.076-.952 5.1 5.1 0 0 1-1.384-1.615q-.49-.981-.52-2.307zm11.383-15.804h3.287v3.114h-3.287zm0 5.681h3.287V23h-3.287zm19.476 14.131q0 3.375-1.903 5.018-1.875 1.674-5.422 1.673-1.125 0-2.279-.23a6.9 6.9 0 0 1-2.076-.78 5.1 5.1 0 0 1-1.557-1.441q-.635-.894-.75-2.192h3.287q.145.691.491 1.125.346.433.807.663a2.9 2.9 0 0 0 1.067.317q.578.087 1.212.087 1.99 0 2.912-.98.923-.982.923-2.827v-2.278h-.057a4.97 4.97 0 0 1-1.904 1.932 5 5 0 0 1-2.567.692q-1.788 0-3.057-.606a6.2 6.2 0 0 1-2.076-1.701 7.4 7.4 0 0 1-1.182-2.51 11.8 11.8 0 0 1-.375-3.027q0-1.5.461-2.856a7.1 7.1 0 0 1 1.327-2.364 6.3 6.3 0 0 1 2.105-1.644q1.27-.606 2.855-.606 1.413 0 2.596.606 1.182.576 1.817 1.846h.057V8.09h3.288zm-7.296-1.817q1.095 0 1.845-.432a3.66 3.66 0 0 0 1.24-1.183q.49-.75.693-1.672.23-.953.23-1.904 0-.952-.23-1.845a4.8 4.8 0 0 0-.721-1.587 3.27 3.27 0 0 0-1.241-1.096q-.749-.403-1.816-.403-1.096 0-1.846.461a3.64 3.64 0 0 0-1.211 1.211 5 5 0 0 0-.664 1.673 8.7 8.7 0 0 0-.202 1.846q0 .922.231 1.817.231.865.692 1.557a4 4 0 0 0 1.212 1.125q.749.432 1.788.432m9.427-17.995h3.288v7.642h.058q.604-1.009 1.788-1.673 1.21-.692 2.682-.692 2.451 0 3.864 1.27 1.413 1.268 1.413 3.806V23h-3.287v-9.373q-.059-1.76-.75-2.538-.693-.807-2.163-.807-.837 0-1.5.317a3 3 0 0 0-1.125.836q-.461.52-.721 1.24-.26.721-.259 1.529V23h-3.288zm13.882 5.681h2.48V3.62h3.288v4.47h2.97v2.451h-2.97v7.96q0 .519.029.894.057.375.202.634.172.26.49.404.317.116.865.116h.692q.347-.03.692-.116v2.538q-.548.058-1.067.116a10 10 0 0 1-1.067.057q-1.298 0-2.105-.23-.779-.26-1.24-.722a2.8 2.8 0 0 1-.606-1.21 10 10 0 0 1-.173-1.645v-8.796h-2.48zm12.405 10.123q.144 1.442 1.096 2.018.951.577 2.278.577.462 0 1.038-.058a5 5 0 0 0 1.125-.288q.52-.202.836-.577.347-.404.318-1.038-.03-.634-.462-1.038t-1.125-.635a9 9 0 0 0-1.528-.432 72 72 0 0 1-1.759-.375 17 17 0 0 1-1.788-.49 6 6 0 0 1-1.529-.779 3.7 3.7 0 0 1-1.067-1.24q-.404-.78-.404-1.904 0-1.21.577-2.018.606-.837 1.5-1.327a6.5 6.5 0 0 1 2.019-.72 12 12 0 0 1 2.134-.203 9 9 0 0 1 2.191.26 5.6 5.6 0 0 1 1.904.778 4.4 4.4 0 0 1 1.413 1.442q.577.866.721 2.106h-3.432q-.23-1.183-1.096-1.587-.835-.403-1.932-.403-.347 0-.836.057a3.6 3.6 0 0 0-.894.231q-.404.144-.693.462-.288.288-.288.778 0 .605.404.98.432.375 1.096.635.692.231 1.557.404.865.172 1.788.375.894.201 1.759.49a5.5 5.5 0 0 1 1.529.779q.692.49 1.096 1.24.432.75.432 1.846 0 1.326-.605 2.25a4.75 4.75 0 0 1-1.587 1.499 7 7 0 0 1-2.134.836q-1.182.26-2.336.26-1.413 0-2.624-.317a6.4 6.4 0 0 1-2.076-.952 5.1 5.1 0 0 1-1.385-1.615q-.49-.981-.519-2.307z" fill="#231F20"/><defs><clipPath id="a"><path fill="#fff" d="M37.124 30.691H168V55H37.124z"/></clipPath></defs></svg>